# WaveFront *.obj file (generated by Autodesk ATF)

mtllib 8d1e2cee-20ca-4888-8e61-3c5522901c9d.mtl

g Body1

v -84.395220 -10.000000 -19.999999
v -84.531517 -11.035276 -19.999999
v -84.931119 -12.000000 -19.999999
v -85.566793 -12.828427 -19.999999
v -86.395220 -13.464102 -19.999999
v -87.359944 -13.863703 -19.999999
v -88.395220 -14.000000 -19.999999
v -89.430497 -13.863703 -19.999999
v -90.395220 -13.464102 -19.999999
v -91.223648 -12.828427 -19.999999
v -91.859322 -12.000000 -19.999999
v -92.258924 -11.035276 -19.999999
v -92.395220 -10.000000 -19.999999
v -92.258924 -8.964724 -19.999999
v -91.859322 -8.000000 -19.999999
v -91.223648 -7.171573 -19.999999
v -90.395220 -6.535898 -19.999999
v -89.430497 -6.136297 -19.999999
v -88.395220 -6.000000 -19.999999
v -87.359944 -6.136297 -19.999999
v -86.395220 -6.535898 -19.999999
v -85.566793 -7.171573 -19.999999
v -84.931119 -8.000000 -19.999999
v -84.531517 -8.964724 -19.999999
v -84.395220 -10.000000 50.000001
v -84.531517 -8.964724 50.000001
v -84.931119 -8.000000 50.000001
v -85.566793 -7.171573 50.000001
v -86.395220 -6.535898 50.000001
v -87.359944 -6.136297 50.000001
v -88.395220 -6.000000 50.000001
v -89.430497 -6.136297 50.000001
v -90.395220 -6.535898 50.000001
v -91.223648 -7.171573 50.000001
v -91.859322 -8.000000 50.000001
v -92.258924 -8.964724 50.000001
v -92.395220 -10.000000 50.000001
v -92.258924 -11.035276 50.000001
v -91.859322 -12.000000 50.000001
v -91.223648 -12.828427 50.000001
v -90.395220 -13.464102 50.000001
v -89.430497 -13.863703 50.000001
v -88.395220 -14.000000 50.000001
v -87.359944 -13.863703 50.000001
v -86.395220 -13.464102 50.000001
v -85.566793 -12.828427 50.000001
v -84.931119 -12.000000 50.000001
v -84.531517 -11.035276 50.000001
v -37.000001 0.000000 -19.999999
v -60.000000 0.000000 20.000000
v -60.000000 -20.000000 20.000000
v -37.000001 -20.000000 -19.999999
v -37.000001 0.000000 50.000001
v -37.000001 -20.000000 50.000001
v -60.000000 0.000000 50.000000
v -79.790440 0.000000 20.000000
v -79.790440 -20.000000 20.000000
v -60.000000 -20.000000 50.000000
v -79.790440 0.000000 50.000001
v -79.790440 -20.000000 50.000001
v -78.193591 0.000000 -19.999999
v -78.193591 0.000000 13.521572
v -78.193591 -20.000000 13.521572
v -78.193591 -20.000000 -19.999999
v -58.918688 0.000000 -19.999999
v -58.918688 -20.000000 -19.999999
v -97.000001 0.000000 50.000001
v -97.000001 -20.000000 50.000001
v -97.000001 0.000000 -19.999999
v -97.000001 -20.000000 -19.999999
vt 7.000000 -1.151917 0.000000
vt 0.000000 -1.151917 0.000000
vt 7.000000 -1.256637 0.000000
vt 0.000000 -1.256637 0.000000
vt 7.000000 1.256637 0.000000
vt 0.000000 1.256637 0.000000
vt 7.000000 1.151917 0.000000
vt 0.000000 1.151917 0.000000
vt 7.000000 1.047198 0.000000
vt 0.000000 1.047198 0.000000
vt 7.000000 0.942478 0.000000
vt 0.000000 0.942478 0.000000
vt 7.000000 0.837758 0.000000
vt 0.000000 0.837758 0.000000
vt 7.000000 0.733038 0.000000
vt 0.000000 0.733038 0.000000
vt 7.000000 0.628319 0.000000
vt 0.000000 0.628319 0.000000
vt 7.000000 0.523599 0.000000
vt 0.000000 0.523599 0.000000
vt 7.000000 0.418879 0.000000
vt 0.000000 0.418879 0.000000
vt 7.000000 0.314159 0.000000
vt 0.000000 0.314159 0.000000
vt 7.000000 0.209440 0.000000
vt 0.000000 0.209440 0.000000
vt 7.000000 0.104720 0.000000
vt 0.000000 0.104720 0.000000
vt 7.000000 0.000000 0.000000
vt 0.000000 0.000000 0.000000
vt 7.000000 -0.104720 0.000000
vt 0.000000 -0.104720 0.000000
vt 7.000000 -0.209440 0.000000
vt -0.000000 -0.209440 0.000000
vt 7.000000 -0.314159 0.000000
vt -0.000000 -0.314159 0.000000
vt 7.000000 -0.418879 0.000000
vt -0.000000 -0.418879 0.000000
vt 7.000000 -0.523599 0.000000
vt -0.000000 -0.523599 0.000000
vt 7.000000 -0.628319 0.000000
vt 0.000000 -0.628319 0.000000
vt 7.000000 -0.733038 0.000000
vt 0.000000 -0.733038 0.000000
vt 7.000000 -0.837758 0.000000
vt 0.000000 -0.837758 0.000000
vt 7.000000 -0.942478 0.000000
vt 0.000000 -0.942478 0.000000
vt 7.000000 -1.047198 0.000000
vt 0.000000 -1.047198 0.000000
vt -0.000000 2.000000 0.000000
vt -4.614109 2.000000 0.000000
vt -0.000000 0.000000 0.000000
vt -4.614109 0.000000 0.000000
vt -0.000000 2.000000 0.000000
vt -3.780212 2.000000 0.000000
vt -0.000000 0.000000 0.000000
vt -3.780212 0.000000 0.000000
vt 0.000000 2.000000 0.000000
vt -3.593969 2.000000 0.000000
vt 0.000000 0.000000 0.000000
vt -3.593969 0.000000 0.000000
vt -0.000000 2.000000 0.000000
vt -3.000000 2.000000 0.000000
vt -0.000000 0.000000 0.000000
vt -3.000000 0.000000 0.000000
vt -0.000000 2.000000 0.000000
vt -3.352157 2.000000 0.000000
vt -0.000000 0.000000 0.000000
vt -3.352157 0.000000 0.000000
vt -0.000000 2.000000 0.000000
vt -3.866804 2.000000 0.000000
vt -0.000000 0.000000 0.000000
vt -3.866804 0.000000 0.000000
vt 4.753152 1.103528 0.000000
vt 4.279044 2.000000 0.000000
vt 4.739522 1.000000 0.000000
vt 4.279044 0.000000 0.000000
vt 4.753152 0.896472 0.000000
vt 4.793112 0.800000 0.000000
vt 4.856679 0.717157 0.000000
vt 4.939522 0.653590 0.000000
vt 5.035994 0.613630 0.000000
vt 5.139522 0.600000 0.000000
vt 6.000000 0.000000 0.000000
vt 5.243050 0.613630 0.000000
vt 5.339522 0.653590 0.000000
vt 5.422365 0.717157 0.000000
vt 5.485932 0.800000 0.000000
vt 5.525892 0.896472 0.000000
vt 5.539522 1.000000 0.000000
vt 6.000000 2.000000 0.000000
vt 5.525892 1.103528 0.000000
vt 5.485932 1.200000 0.000000
vt 5.422365 1.282843 0.000000
vt 5.339522 1.346410 0.000000
vt 5.243050 1.386370 0.000000
vt 5.139522 1.400000 0.000000
vt 5.035994 1.386370 0.000000
vt 4.939522 1.346410 0.000000
vt 4.856679 1.282843 0.000000
vt 4.793112 1.200000 0.000000
vt 2.300000 2.000000 0.000000
vt 0.000000 2.000000 0.000000
vt 2.300000 -0.000000 0.000000
vt -0.000000 0.000000 0.000000
vt 3.000000 -3.500000 0.000000
vt 0.700000 -0.500000 0.000000
vt 0.700000 -3.500000 0.000000
vt -1.279044 -0.500000 0.000000
vt -1.119359 0.147843 0.000000
vt -3.000000 3.500000 0.000000
vt -1.119359 3.500000 0.000000
vt 3.000000 3.500000 0.000000
vt 0.808131 3.500000 0.000000
vt -3.000000 -3.500000 0.000000
vt -1.279044 -3.500000 0.000000
vt 3.808131 0.000000 0.000000
vt 6.000000 0.000000 0.000000
vt 3.808131 2.000000 0.000000
vt 6.000000 2.000000 0.000000
vt 1.246848 0.896472 0.000000
vt 1.880641 0.000000 0.000000
vt 1.260478 1.000000 0.000000
vt 1.880641 2.000000 0.000000
vt 1.246848 1.103528 0.000000
vt 1.206888 1.200000 0.000000
vt 1.143321 1.282843 0.000000
vt 1.060478 1.346410 0.000000
vt 0.964006 1.386370 0.000000
vt 0.860478 1.400000 0.000000
vt 0.000000 2.000000 0.000000
vt 0.756950 1.386370 0.000000
vt 0.660478 1.346410 0.000000
vt 0.577635 1.282843 0.000000
vt 0.514068 1.200000 0.000000
vt 0.474108 1.103528 0.000000
vt 0.460478 1.000000 0.000000
vt 0.000000 0.000000 0.000000
vt 0.474108 0.896472 0.000000
vt 0.514068 0.800000 0.000000
vt 0.577635 0.717157 0.000000
vt 0.660478 0.653590 0.000000
vt 0.756950 0.613630 0.000000
vt 0.860478 0.600000 0.000000
vt 0.964006 0.613630 0.000000
vt 1.060478 0.653590 0.000000
vt 1.143321 0.717157 0.000000
vt 1.206888 0.800000 0.000000
vt -0.000000 0.000000 0.000000
vt 7.000000 0.000000 0.000000
vt 0.000000 2.000000 0.000000
vt 7.000000 2.000000 0.000000
vt -3.500000 3.000000 0.000000
vt -3.500000 0.700000 0.000000
vt -0.500000 0.700000 0.000000
vt -0.500000 -1.279044 0.000000
vt 0.147843 -1.119359 0.000000
vt 3.500000 -3.000000 0.000000
vt 3.500000 -1.119359 0.000000
vt -3.500000 -1.279044 0.000000
vt -3.500000 -3.000000 0.000000
vt 3.500000 0.808131 0.000000
vt 3.500000 3.000000 0.000000
vn -0.096593 0.025882 0.000000
vn -0.096593 0.025882 0.000000
vn -0.100000 0.000000 0.000000
vn -0.100000 0.000000 0.000000
vn -0.096593 -0.025882 0.000000
vn -0.096593 -0.025882 0.000000
vn -0.086603 -0.050000 0.000000
vn -0.086603 -0.050000 0.000000
vn -0.070711 -0.070711 0.000000
vn -0.070711 -0.070711 0.000000
vn -0.050000 -0.086603 0.000000
vn -0.050000 -0.086603 0.000000
vn -0.025882 -0.096593 0.000000
vn -0.025882 -0.096593 0.000000
vn 0.000000 -0.100000 0.000000
vn 0.000000 -0.100000 0.000000
vn 0.025882 -0.096593 0.000000
vn 0.025882 -0.096593 0.000000
vn 0.050000 -0.086603 0.000000
vn 0.050000 -0.086603 0.000000
vn 0.070711 -0.070711 0.000000
vn 0.070711 -0.070711 0.000000
vn 0.086603 -0.050000 0.000000
vn 0.086603 -0.050000 0.000000
vn 0.096593 -0.025882 0.000000
vn 0.096593 -0.025882 0.000000
vn 0.100000 -0.000000 0.000000
vn 0.100000 -0.000000 0.000000
vn 0.096593 0.025882 0.000000
vn 0.096593 0.025882 0.000000
vn 0.086603 0.050000 0.000000
vn 0.086603 0.050000 0.000000
vn 0.070711 0.070711 0.000000
vn 0.070711 0.070711 0.000000
vn 0.050000 0.086603 0.000000
vn 0.050000 0.086603 0.000000
vn 0.025882 0.096593 0.000000
vn 0.025882 0.096593 0.000000
vn 0.000000 0.100000 0.000000
vn 0.000000 0.100000 0.000000
vn -0.025882 0.096593 0.000000
vn -0.025882 0.096593 0.000000
vn -0.050000 0.086603 0.000000
vn -0.050000 0.086603 0.000000
vn -0.070711 0.070711 0.000000
vn -0.070711 0.070711 0.000000
vn -0.086603 0.050000 0.000000
vn -0.086603 0.050000 0.000000
vn 0.086691 -0.000000 0.049847
vn 0.086691 -0.000000 0.049847
vn 0.086691 -0.000000 0.049847
vn 0.086691 -0.000000 0.049847
vn 0.079361 0.000000 -0.060843
vn 0.079361 0.000000 -0.060843
vn 0.079361 0.000000 -0.060843
vn 0.079361 0.000000 -0.060843
vn -0.083473 0.000000 0.055066
vn -0.083473 0.000000 0.055066
vn -0.083473 0.000000 0.055066
vn -0.083473 0.000000 0.055066
vn 0.100000 0.000000 0.000000
vn 0.100000 0.000000 0.000000
vn 0.100000 0.000000 0.000000
vn 0.100000 0.000000 0.000000
vn 0.100000 0.000000 -0.000000
vn 0.100000 0.000000 -0.000000
vn 0.100000 0.000000 -0.000000
vn 0.100000 0.000000 -0.000000
vn -0.086691 0.000000 -0.049847
vn -0.086691 0.000000 -0.049847
vn -0.086691 0.000000 -0.049847
vn -0.086691 0.000000 -0.049847
vn 0.000000 0.000000 0.100000
vn 0.000000 0.000000 0.100000
vn 0.000000 0.000000 0.100000
vn 0.000000 0.000000 0.100000
vn 0.000000 0.000000 0.100000
vn 0.000000 0.000000 0.100000
vn 0.000000 0.000000 0.100000
vn 0.000000 0.000000 0.100000
vn 0.000000 0.000000 0.100000
vn 0.000000 0.000000 0.100000
vn 0.000000 0.000000 0.100000
vn 0.000000 0.000000 0.100000
vn 0.000000 0.000000 0.100000
vn 0.000000 0.000000 0.100000
vn 0.000000 0.000000 0.100000
vn 0.000000 0.000000 0.100000
vn 0.000000 0.000000 0.100000
vn 0.000000 0.000000 0.100000
vn 0.000000 0.000000 0.100000
vn 0.000000 0.000000 0.100000
vn 0.000000 0.000000 0.100000
vn 0.000000 0.000000 0.100000
vn 0.000000 0.000000 0.100000
vn 0.000000 0.000000 0.100000
vn 0.000000 0.000000 0.100000
vn 0.000000 0.000000 0.100000
vn 0.000000 0.000000 0.100000
vn 0.000000 0.000000 0.100000
vn 0.000000 0.000000 0.100000
vn 0.000000 0.000000 0.100000
vn 0.000000 0.000000 0.100000
vn 0.000000 0.000000 0.100000
vn 0.000000 0.100000 0.000000
vn 0.000000 0.100000 0.000000
vn 0.000000 0.100000 0.000000
vn 0.000000 0.100000 0.000000
vn 0.000000 0.100000 0.000000
vn 0.000000 0.100000 0.000000
vn 0.000000 0.100000 0.000000
vn 0.000000 0.100000 0.000000
vn 0.000000 0.100000 0.000000
vn 0.000000 0.100000 0.000000
vn 0.000000 0.100000 0.000000
vn -0.000000 0.000000 -0.100000
vn -0.000000 0.000000 -0.100000
vn -0.000000 0.000000 -0.100000
vn -0.000000 0.000000 -0.100000
vn -0.000000 0.000000 -0.100000
vn -0.000000 0.000000 -0.100000
vn -0.000000 0.000000 -0.100000
vn -0.000000 0.000000 -0.100000
vn -0.000000 0.000000 -0.100000
vn -0.000000 0.000000 -0.100000
vn -0.000000 0.000000 -0.100000
vn -0.000000 0.000000 -0.100000
vn -0.000000 0.000000 -0.100000
vn -0.000000 0.000000 -0.100000
vn -0.000000 0.000000 -0.100000
vn -0.000000 0.000000 -0.100000
vn -0.000000 0.000000 -0.100000
vn -0.000000 0.000000 -0.100000
vn -0.000000 0.000000 -0.100000
vn -0.000000 0.000000 -0.100000
vn -0.000000 0.000000 -0.100000
vn -0.000000 0.000000 -0.100000
vn -0.000000 0.000000 -0.100000
vn -0.000000 0.000000 -0.100000
vn -0.000000 0.000000 -0.100000
vn -0.000000 0.000000 -0.100000
vn -0.000000 0.000000 -0.100000
vn -0.000000 0.000000 -0.100000
vn -0.000000 0.000000 -0.100000
vn -0.000000 0.000000 -0.100000
vn -0.000000 0.000000 -0.100000
vn -0.000000 0.000000 -0.100000
vn -0.100000 0.000000 0.000000
vn -0.100000 0.000000 0.000000
vn -0.100000 0.000000 0.000000
vn -0.100000 0.000000 0.000000
vn 0.000000 -0.100000 0.000000
vn 0.000000 -0.100000 0.000000
vn 0.000000 -0.100000 0.000000
vn 0.000000 -0.100000 0.000000
vn 0.000000 -0.100000 0.000000
vn 0.000000 -0.100000 0.000000
vn 0.000000 -0.100000 0.000000
vn 0.000000 -0.100000 0.000000
vn 0.000000 -0.100000 0.000000
vn 0.000000 -0.100000 0.000000
vn 0.000000 -0.100000 0.000000
usemtl Steel_-_Satin
f 2/1/1 48/2/2 1/3/3
f 1/3/3 48/2/2 25/4/4
f 1/5/3 25/6/4 24/7/5
f 24/7/5 25/6/4 26/8/6
f 24/7/5 26/8/6 23/9/7
f 23/9/7 26/8/6 27/10/8
f 23/9/7 27/10/8 22/11/9
f 22/11/9 27/10/8 28/12/10
f 22/11/9 28/12/10 21/13/11
f 21/13/11 28/12/10 29/14/12
f 21/13/11 29/14/12 20/15/13
f 20/15/13 29/14/12 30/16/14
f 20/15/13 30/16/14 19/17/15
f 19/17/15 30/16/14 31/18/16
f 19/17/15 31/18/16 18/19/17
f 18/19/17 31/18/16 32/20/18
f 18/19/17 32/20/18 17/21/19
f 17/21/19 32/20/18 33/22/20
f 17/21/19 33/22/20 16/23/21
f 16/23/21 33/22/20 34/24/22
f 16/23/21 34/24/22 15/25/23
f 15/25/23 34/24/22 35/26/24
f 15/25/23 35/26/24 14/27/25
f 14/27/25 35/26/24 36/28/26
f 14/27/25 36/28/26 13/29/27
f 13/29/27 36/28/26 37/30/28
f 13/29/27 37/30/28 12/31/29
f 12/31/29 37/30/28 38/32/30
f 12/31/29 38/32/30 11/33/31
f 11/33/31 38/32/30 39/34/32
f 11/33/31 39/34/32 10/35/33
f 10/35/33 39/34/32 40/36/34
f 10/35/33 40/36/34 9/37/35
f 9/37/35 40/36/34 41/38/36
f 9/37/35 41/38/36 8/39/37
f 8/39/37 41/38/36 42/40/38
f 8/39/37 42/40/38 7/41/39
f 7/41/39 42/40/38 43/42/40
f 7/41/39 43/42/40 6/43/41
f 6/43/41 43/42/40 44/44/42
f 6/43/41 44/44/42 5/45/43
f 5/45/43 44/44/42 45/46/44
f 5/45/43 45/46/44 4/47/45
f 4/47/45 45/46/44 46/48/46
f 4/47/45 46/48/46 3/49/47
f 3/49/47 46/48/46 47/50/48
f 3/49/47 47/50/48 2/1/1
f 2/1/1 47/50/48 48/2/2
f 49/51/49 50/52/50 52/53/51
f 52/53/51 50/52/50 51/54/52
f 50/55/53 53/56/54 51/57/55
f 51/57/55 53/56/54 54/58/56
f 55/59/57 56/60/58 58/61/59
f 58/61/59 56/60/58 57/62/60
f 56/63/61 59/64/62 57/65/63
f 57/65/63 59/64/62 60/66/64
f 61/67/65 62/68/66 64/69/67
f 64/69/67 62/68/66 63/70/68
f 62/71/69 65/72/70 63/73/71
f 63/73/71 65/72/70 66/74/72
f 48/75/73 60/76/74 25/77/75
f 25/77/75 60/76/74 59/78/76
f 25/77/75 59/78/76 26/79/77
f 26/79/77 59/78/76 27/80/78
f 27/80/78 59/78/76 28/81/79
f 28/81/79 59/78/76 29/82/80
f 29/82/80 59/78/76 30/83/81
f 30/83/81 59/78/76 31/84/82
f 31/84/82 59/78/76 67/85/83
f 31/84/82 67/85/83 32/86/84
f 32/86/84 67/85/83 33/87/85
f 33/87/85 67/85/83 34/88/86
f 34/88/86 67/85/83 35/89/87
f 35/89/87 67/85/83 36/90/88
f 36/90/88 67/85/83 37/91/89
f 37/91/89 67/85/83 68/92/90
f 37/91/89 68/92/90 38/93/91
f 38/93/91 68/92/90 39/94/92
f 39/94/92 68/92/90 40/95/93
f 40/95/93 68/92/90 41/96/94
f 41/96/94 68/92/90 42/97/95
f 42/97/95 68/92/90 43/98/96
f 43/98/96 68/92/90 60/76/74
f 43/98/96 60/76/74 44/99/97
f 44/99/97 60/76/74 45/100/98
f 45/100/98 60/76/74 46/101/99
f 46/101/99 60/76/74 47/102/100
f 47/102/100 60/76/74 48/75/73
f 58/103/101 54/104/102 55/105/103
f 55/105/103 54/104/102 53/106/104
f 53/107/105 50/108/106 55/109/107
f 55/109/107 50/108/106 56/110/108
f 56/110/108 50/108/106 62/111/109
f 56/110/108 62/111/109 69/112/110
f 69/112/110 62/111/109 61/113/111
f 49/114/112 65/115/113 50/108/106
f 50/108/106 65/115/113 62/111/109
f 69/112/110 67/116/114 56/110/108
f 56/110/108 67/116/114 59/117/115
f 65/118/116 49/119/117 66/120/118
f 66/120/118 49/119/117 52/121/119
f 24/122/120 61/123/121 1/124/122
f 1/124/122 61/123/121 64/125/123
f 1/124/122 64/125/123 2/126/124
f 2/126/124 64/125/123 3/127/125
f 3/127/125 64/125/123 4/128/126
f 4/128/126 64/125/123 5/129/127
f 5/129/127 64/125/123 6/130/128
f 6/130/128 64/125/123 7/131/129
f 7/131/129 64/125/123 70/132/130
f 7/131/129 70/132/130 8/133/131
f 8/133/131 70/132/130 9/134/132
f 9/134/132 70/132/130 10/135/133
f 10/135/133 70/132/130 11/136/134
f 11/136/134 70/132/130 12/137/135
f 12/137/135 70/132/130 13/138/136
f 13/138/136 70/132/130 69/139/137
f 13/138/136 69/139/137 14/140/138
f 14/140/138 69/139/137 15/141/139
f 15/141/139 69/139/137 16/142/140
f 16/142/140 69/139/137 17/143/141
f 17/143/141 69/139/137 18/144/142
f 18/144/142 69/139/137 19/145/143
f 19/145/143 69/139/137 61/123/121
f 19/145/143 61/123/121 20/146/144
f 20/146/144 61/123/121 21/147/145
f 21/147/145 61/123/121 22/148/146
f 22/148/146 61/123/121 23/149/147
f 23/149/147 61/123/121 24/122/120
f 67/150/148 69/151/149 68/152/150
f 68/152/150 69/151/149 70/153/151
f 54/154/152 58/155/153 51/156/154
f 51/156/154 58/155/153 57/157/155
f 51/156/154 57/157/155 63/158/156
f 63/158/156 57/157/155 70/159/157
f 63/158/156 70/159/157 64/160/158
f 60/161/159 68/162/160 57/157/155
f 57/157/155 68/162/160 70/159/157
f 63/158/156 66/163/161 51/156/154
f 51/156/154 66/163/161 52/164/162

# 70 vertices
# 164 texture params
# 162 normals
# 140 facets

# 1 groups
